<?xml version="1.0" encoding="UTF-8" standalone="no"?>
<svg
   fill="none"
   viewBox="0 0 1001.8029 591.86234"
   version="1.1"
   id="svg15"
   sodipodi:docname="geograph-logo.svg"
   xml:space="preserve"
   inkscape:version="1.4.2 (ebf0e940d0, 2025-05-08)"
   width="1001.8028"
   height="591.8623"
   xmlns:inkscape="http://www.inkscape.org/namespaces/inkscape"
   xmlns:sodipodi="http://sodipodi.sourceforge.net/DTD/sodipodi-0.dtd"
   xmlns="http://www.w3.org/2000/svg"
   xmlns:svg="http://www.w3.org/2000/svg"><sodipodi:namedview
     id="namedview15"
     pagecolor="#ffffff"
     bordercolor="#000000"
     borderopacity="0.25"
     inkscape:showpageshadow="2"
     inkscape:pageopacity="0.0"
     inkscape:pagecheckerboard="0"
     inkscape:deskcolor="#d1d1d1"
     inkscape:zoom="0.82409382"
     inkscape:cx="495.08926"
     inkscape:cy="295.47607"
     inkscape:window-width="1534"
     inkscape:window-height="831"
     inkscape:window-x="0"
     inkscape:window-y="0"
     inkscape:window-maximized="1"
     inkscape:current-layer="layer1" /><g
     inkscape:groupmode="layer"
     id="layer1"
     inkscape:label="background"
     style="fill:#000080"
     transform="translate(26.383948,181.70607)"><rect
       style="fill:#000066;fill-opacity:1;stroke:#000000;stroke-width:2.71258"
       id="rect15"
       width="999.09021"
       height="589.14972"
       x="-25.027658"
       y="-180.34978" /></g><g
     clip-path="url(#a)"
     id="g9"
     transform="translate(26.383948,181.70607)"><g
       fill="#3ad271"
       filter="url(#b)"
       id="g1"><path
         d="m 75,200 h 20 v 20 H 75 Z M 75,25 H 95 V 45 H 75 Z M 75,1 H 95 V 21 H 75 Z m 25,0 h 20 V 21 H 100 Z M 75,50 H 95 V 70 H 75 Z m 25,0 h 20 v 20 h -20 z m 0,-24 h 20 v 20 h -20 z m 0,49 h 20 v 20 h -20 z m 0,50 h 20 v 20 h -20 z m 0,-25 h 20 v 20 h -20 z m 0,50 h 20 v 20 h -20 z m 0,25 h 20 v 20 H 100 Z M 125,75 h 20 v 20 h -20 z m 0,50 h 20 v 20 h -20 z m 0,-25 h 20 v 20 h -20 z m 0,50 h 20 v 20 h -20 z m 0,25 h 20 v 20 h -20 z m 25,-50 h 20 v 20 h -20 z m 0,25 h 20 v 20 h -20 z m 0,25 h 20 v 20 h -20 z m 25,-25 h 20 v 20 H 175 Z M 75,175 h 20 v 20 H 75 Z M 50,101 h 20 v 20 H 50 Z m -25,0 h 20 v 20 H 25 Z m 25,25 h 20 v 20 H 50 Z m -25,0 h 20 v 20 H 25 Z m 25,25 h 20 v 20 H 50 Z m -25,0 h 20 v 20 H 25 Z m -25,0 h 20 v 20 H 0 Z m 50,49 h 20 v 20 H 50 Z M 125,26 h 20 v 20 h -20 z"
         id="path1" /></g><g
       fill="#ffffff"
       filter="url(#c)"
       id="g5"><path
         d="M 298.306,51.5391 H 281.44 c 1.994,2.2487 3.476,4.6251 4.447,7.1294 1.022,2.5042 1.533,5.1106 1.533,7.8193 0,3.5264 -0.946,6.8483 -2.837,9.9658 -1.89,3.0664 -4.369,5.5707 -7.436,7.5127 -3.117,1.9932 -6.771,3.5519 -10.962,4.6763 -4.191,1.1243 -8.739,1.6865 -13.645,1.6865 h -12.496 c -0.613,0.46 -1.303,1.201 -2.07,2.2231 -0.715,0.9711 -1.073,1.9166 -1.073,2.8365 0,2.2487 0.894,3.8074 2.683,4.6763 1.789,0.869 5.034,1.354 9.736,1.456 4.651,0.103 9.352,0.307 14.105,0.614 4.753,0.255 8.152,0.409 10.196,0.46 2.964,0.153 5.903,0.766 8.816,1.84 2.913,1.022 5.443,2.376 7.589,4.063 2.351,1.788 4.293,4.088 5.827,6.899 1.533,2.76 2.299,5.954 2.299,9.582 0,3.885 -0.945,7.539 -2.836,10.963 -1.84,3.424 -4.676,6.388 -8.509,8.892 -4.038,2.607 -8.893,4.626 -14.566,6.057 -5.622,1.431 -12.598,2.146 -20.928,2.146 -13.441,0 -23.662,-1.635 -30.664,-4.906 -7.002,-3.271 -10.503,-8.177 -10.503,-14.719 0,-4.037 1.891,-7.359 5.673,-9.966 3.782,-2.606 9.66,-4.037 17.632,-4.293 v -0.92 c -4.702,-1.584 -8.381,-3.679 -11.039,-6.286 -2.606,-2.657 -3.91,-5.724 -3.91,-9.199 0,-2.146 0.512,-3.9607 1.534,-5.4428 1.073,-1.4821 2.427,-2.7853 4.063,-3.9097 1.431,-0.971 3.168,-1.7887 5.213,-2.4531 2.044,-0.7155 3.756,-1.2777 5.136,-1.6865 v -0.8433 c -6.9,-2.5553 -11.985,-5.6729 -15.256,-9.3525 -3.219,-3.6797 -4.829,-8.1771 -4.829,-13.4922 0,-7.5127 3.449,-13.5178 10.349,-18.0152 6.95,-4.4974 15.741,-6.7461 26.371,-6.7461 3.475,0 6.823,0.3067 10.042,0.92 3.271,0.5621 5.75,1.0732 7.437,1.5332 h 29.744 z m -35.954,14.6421 c 0,-5.9795 -0.945,-10.7069 -2.836,-14.1822 -1.891,-3.4752 -4.804,-5.2129 -8.74,-5.2129 -1.993,0 -3.73,0.4855 -5.213,1.4566 -1.482,0.9199 -2.683,2.2742 -3.603,4.063 -0.868,1.7376 -1.456,3.7819 -1.763,6.1328 -0.306,2.2998 -0.46,4.6762 -0.46,7.1294 0,5.5706 0.971,10.1447 2.913,13.7221 1.942,3.5775 4.702,5.3662 8.28,5.3662 3.679,0 6.49,-1.6098 8.432,-4.8295 1.993,-3.2198 2.99,-7.7683 2.99,-13.6455 z m 12.879,64.3948 c 0,-1.738 -0.486,-3.476 -1.457,-5.213 -0.971,-1.687 -3.143,-3.067 -6.516,-4.14 -1.84,-0.306 -4.88,-0.511 -9.122,-0.613 -4.191,-0.102 -9.966,-0.153 -17.325,-0.153 -1.789,1.533 -3.297,3.347 -4.523,5.442 -1.176,2.096 -1.764,4.626 -1.764,7.59 0,1.277 0.358,2.683 1.074,4.216 0.715,1.533 1.84,2.964 3.373,4.293 1.788,1.482 3.782,2.632 5.979,3.45 2.198,0.869 5.52,1.303 9.966,1.303 6.593,0 11.627,-1.278 15.102,-3.833 3.475,-2.555 5.213,-6.669 5.213,-12.342 z"
         id="path2" /><path
         d="m 378.468,100.678 c -1.788,2.913 -3.961,5.673 -6.516,8.28 -2.504,2.555 -5.366,4.752 -8.586,6.592 -3.424,1.942 -6.899,3.399 -10.426,4.37 -3.475,1.022 -7.487,1.533 -12.035,1.533 -7.564,0 -14.106,-1.073 -19.625,-3.22 -5.469,-2.146 -9.992,-5.034 -13.569,-8.662 -3.578,-3.629 -6.261,-7.896 -8.049,-12.8024 -1.738,-4.9574 -2.607,-10.3236 -2.607,-16.0987 0,-5.2129 0.946,-10.1958 2.837,-14.9487 1.942,-4.804 4.676,-9.0715 8.202,-12.8023 3.475,-3.6285 7.845,-6.5672 13.109,-8.8159 5.315,-2.2487 11.244,-3.373 17.785,-3.373 7.155,0 13.033,0.8688 17.632,2.6064 4.6,1.7377 8.407,4.1397 11.422,7.2061 2.914,2.9131 5.034,6.3628 6.363,10.3491 1.329,3.9352 1.993,8.0749 1.993,12.4189 v 4.983 h -51.822 c 0,10.4768 2.019,18.4495 6.056,23.9175 4.038,5.469 10.452,8.203 19.242,8.203 4.804,0 9.123,-1.303 12.956,-3.91 3.833,-2.657 7.103,-6.005 9.812,-10.0421 z M 349.184,71.5474 c 0,-3.0664 -0.153,-6.2095 -0.46,-9.4292 -0.307,-3.2198 -0.843,-5.8518 -1.61,-7.896 -0.869,-2.4021 -2.07,-4.2163 -3.603,-5.4429 -1.482,-1.2266 -3.373,-1.8398 -5.673,-1.8398 -3.935,0 -7.078,1.9931 -9.429,5.9794 -2.351,3.9864 -3.628,10.2981 -3.833,18.9351 z M 457.174,51.999 c 3.782,3.5264 6.67,7.7427 8.663,12.6489 1.993,4.9063 2.99,10.2214 2.99,15.9454 0,5.6728 -0.997,11.039 -2.99,16.0986 -1.942,5.0081 -4.804,9.3011 -8.586,12.8791 -4.037,3.833 -8.867,6.771 -14.489,8.816 -5.57,2.044 -11.959,3.066 -19.165,3.066 -6.235,0 -11.984,-0.894 -17.248,-2.683 -5.213,-1.789 -9.838,-4.472 -13.876,-8.049 -3.884,-3.424 -6.95,-7.641 -9.199,-12.6492 -2.249,-5.0596 -3.373,-10.7069 -3.373,-16.9419 0,-6.1328 0.971,-11.5757 2.913,-16.3286 1.993,-4.8041 4.957,-9.0715 8.893,-12.8023 3.781,-3.5775 8.432,-6.3372 13.952,-8.2793 5.57,-1.9931 11.78,-2.9897 18.628,-2.9897 7.155,0 13.441,0.9966 18.859,2.9897 5.468,1.9421 10.144,4.7018 14.028,8.2793 z m -19.625,53.126 c 1.125,-2.862 1.942,-6.3377 2.453,-10.4263 0.563,-4.0885 0.844,-8.8414 0.844,-14.2588 0,-3.5774 -0.256,-7.666 -0.767,-12.2656 -0.511,-4.5996 -1.278,-8.2282 -2.3,-10.8857 -1.226,-3.2198 -2.938,-5.7495 -5.136,-7.5894 -2.146,-1.8398 -4.881,-2.7597 -8.203,-2.7597 -3.628,0 -6.541,0.9965 -8.739,2.9897 -2.146,1.9932 -3.807,4.5741 -4.983,7.7427 -1.073,2.9131 -1.814,6.3372 -2.223,10.2724 -0.409,3.8842 -0.613,7.9471 -0.613,12.189 0,5.5706 0.179,10.1958 0.536,13.8755 0.358,3.6286 1.227,7.2832 2.607,10.9622 1.175,3.169 2.862,5.673 5.059,7.513 2.198,1.84 4.983,2.76 8.356,2.76 3.067,0 5.699,-0.844 7.896,-2.53 2.198,-1.738 3.936,-4.268 5.213,-7.589 z M 557.575,51.5391 H 540.71 c 1.993,2.2487 3.475,4.6251 4.446,7.1294 1.022,2.5042 1.533,5.1106 1.533,7.8193 0,3.5264 -0.945,6.8483 -2.836,9.9658 -1.891,3.0664 -4.37,5.5707 -7.436,7.5127 -3.118,1.9932 -6.772,3.5519 -10.962,4.6763 -4.191,1.1243 -8.74,1.6865 -13.646,1.6865 h -12.496 c -0.613,0.46 -1.303,1.201 -2.069,2.2231 -0.716,0.9711 -1.074,1.9166 -1.074,2.8365 0,2.2487 0.895,3.8074 2.684,4.6763 1.788,0.869 5.034,1.354 9.735,1.456 4.651,0.103 9.353,0.307 14.106,0.614 4.753,0.255 8.151,0.409 10.196,0.46 2.964,0.153 5.902,0.766 8.816,1.84 2.913,1.022 5.442,2.376 7.589,4.063 2.351,1.788 4.293,4.088 5.826,6.899 1.533,2.76 2.3,5.954 2.3,9.582 0,3.885 -0.946,7.539 -2.837,10.963 -1.839,3.424 -4.676,6.388 -8.509,8.892 -4.037,2.607 -8.892,4.626 -14.565,6.057 -5.622,1.431 -12.598,2.146 -20.928,2.146 -13.442,0 -23.663,-1.635 -30.665,-4.906 -7.001,-3.271 -10.502,-8.177 -10.502,-14.719 0,-4.037 1.891,-7.359 5.673,-9.966 3.782,-2.606 9.659,-4.037 17.632,-4.293 v -0.92 c -4.702,-1.584 -8.382,-3.679 -11.039,-6.286 -2.607,-2.657 -3.91,-5.724 -3.91,-9.199 0,-2.146 0.511,-3.9607 1.533,-5.4428 1.073,-1.4821 2.428,-2.7853 4.063,-3.9097 1.431,-0.971 3.169,-1.7887 5.213,-2.4531 2.044,-0.7155 3.756,-1.2777 5.136,-1.6865 v -0.8433 c -6.899,-2.5553 -11.984,-5.6729 -15.255,-9.3525 -3.22,-3.6797 -4.83,-8.1771 -4.83,-13.4922 0,-7.5127 3.45,-13.5178 10.349,-18.0152 6.951,-4.4974 15.741,-6.7461 26.372,-6.7461 3.475,0 6.822,0.3067 10.042,0.92 3.271,0.5621 5.75,1.0732 7.436,1.5332 h 29.744 z m -35.953,14.6421 c 0,-5.9795 -0.946,-10.7069 -2.837,-14.1822 -1.891,-3.4752 -4.804,-5.2129 -8.739,-5.2129 -1.993,0 -3.731,0.4855 -5.213,1.4566 -1.482,0.9199 -2.683,2.2742 -3.603,4.063 -0.869,1.7376 -1.457,3.7819 -1.763,6.1328 -0.307,2.2998 -0.46,4.6762 -0.46,7.1294 0,5.5706 0.971,10.1447 2.913,13.7221 1.942,3.5775 4.702,5.3662 8.279,5.3662 3.68,0 6.491,-1.6098 8.433,-4.8295 1.993,-3.2198 2.99,-7.7683 2.99,-13.6455 z M 534.5,130.576 c 0,-1.738 -0.485,-3.476 -1.456,-5.213 -0.971,-1.687 -3.143,-3.067 -6.516,-4.14 -1.84,-0.306 -4.881,-0.511 -9.123,-0.613 -4.19,-0.102 -9.966,-0.153 -17.325,-0.153 -1.789,1.533 -3.296,3.347 -4.523,5.442 -1.175,2.096 -1.763,4.626 -1.763,7.59 0,1.277 0.358,2.683 1.073,4.216 0.716,1.533 1.84,2.964 3.373,4.293 1.789,1.482 3.782,2.632 5.98,3.45 2.197,0.869 5.519,1.303 9.966,1.303 6.592,0 11.626,-1.278 15.102,-3.833 3.475,-2.555 5.212,-6.669 5.212,-12.342 z"
         id="path3" /><path
         d="m 631.682,56.9819 c 0,3.8841 -1.201,7.3083 -3.603,10.2725 -2.402,2.9131 -5.571,4.3696 -9.506,4.3696 -3.731,0 -6.9,-0.9455 -9.506,-2.8364 -2.555,-1.891 -3.833,-4.6763 -3.833,-8.356 0,-1.7887 0.128,-3.1686 0.383,-4.1396 0.256,-1.0221 0.486,-1.9676 0.69,-2.8364 -2.351,0.1022 -4.829,0.9199 -7.436,2.4531 -2.606,1.5332 -4.906,3.5775 -6.899,6.1328 v 42.0865 c 0,1.789 0.281,3.271 0.843,4.446 0.562,1.176 1.508,2.096 2.836,2.76 1.125,0.562 2.939,1.048 5.443,1.457 2.556,0.357 4.395,0.562 5.52,0.613 V 119 h -51.286 v -5.596 c 1.278,-0.102 2.555,-0.23 3.833,-0.383 1.329,-0.205 2.453,-0.46 3.373,-0.767 1.636,-0.562 2.76,-1.431 3.373,-2.607 0.614,-1.175 0.92,-2.708 0.92,-4.599 V 60.4316 c 0,-1.8398 -0.434,-3.4752 -1.303,-4.9062 -0.869,-1.4821 -1.917,-2.6576 -3.143,-3.5264 -0.92,-0.6133 -2.096,-1.1243 -3.527,-1.5332 -1.379,-0.4088 -2.913,-0.6899 -4.599,-0.8432 v -5.5962 l 36.567,-1.9932 1.15,1.1499 v 11.1157 h 0.306 c 3.527,-4.0885 7.257,-7.2827 11.193,-9.5825 3.986,-2.3509 8.126,-3.5264 12.419,-3.5264 4.753,0 8.56,1.4821 11.422,4.4463 2.913,2.9131 4.37,6.695 4.37,11.3457 z M 717.67,117.39 c -2.248,0.971 -4.906,1.866 -7.972,2.683 -3.067,0.818 -6.312,1.227 -9.736,1.227 -6.286,0 -10.911,-0.92 -13.876,-2.76 -2.964,-1.891 -4.982,-4.574 -6.056,-8.049 h -0.46 c -1.737,1.737 -3.424,3.219 -5.059,4.446 -1.585,1.227 -3.297,2.274 -5.136,3.143 -2.403,1.124 -4.728,1.942 -6.977,2.453 -2.197,0.562 -5.289,0.843 -9.275,0.843 -5.929,0 -10.988,-1.737 -15.179,-5.212 -4.191,-3.527 -6.286,-8.178 -6.286,-13.953 0,-3.3215 0.46,-6.1324 1.38,-8.4322 0.92,-2.3509 2.223,-4.4207 3.909,-6.2095 1.533,-1.6354 3.297,-2.9897 5.29,-4.063 2.044,-1.0732 4.267,-2.0698 6.669,-2.9897 4.6,-1.6865 10.119,-3.4242 16.559,-5.2129 6.439,-1.8398 11.141,-3.4752 14.105,-4.9062 v -7.3594 c 0,-1.2777 -0.102,-2.9642 -0.306,-5.0596 -0.205,-2.0954 -0.639,-3.8585 -1.304,-5.2895 -0.715,-1.6355 -1.839,-3.0153 -3.373,-4.1397 -1.533,-1.1243 -3.552,-1.6865 -6.056,-1.6865 -2.248,0 -4.139,0.3322 -5.673,0.9966 -1.482,0.6133 -2.683,1.2521 -3.603,1.9165 0.154,1.0221 0.588,2.5809 1.304,4.6762 0.715,2.0954 1.073,4.1141 1.073,6.0562 0,0.8688 -0.23,1.9676 -0.69,3.2964 -0.46,1.2777 -1.124,2.2998 -1.993,3.0664 -1.176,1.0221 -2.505,1.8143 -3.987,2.3765 -1.431,0.5621 -3.654,0.8432 -6.669,0.8432 -4.293,0 -7.538,-1.0221 -9.736,-3.0664 -2.197,-2.0954 -3.296,-4.804 -3.296,-8.126 0,-2.8619 1.124,-5.4173 3.373,-7.666 2.3,-2.2998 5.085,-4.1907 8.356,-5.6728 3.219,-1.5332 6.925,-2.7087 11.115,-3.5264 4.191,-0.8688 8.075,-1.3032 11.653,-1.3032 4.957,0 9.506,0.3066 13.645,0.9199 4.14,0.5622 7.871,1.7632 11.193,3.603 3.168,1.7888 5.673,4.3952 7.512,7.8194 1.891,3.373 2.837,7.7937 2.837,13.2622 0,5.775 -0.128,12.6233 -0.383,20.5449 -0.205,7.9215 -0.307,13.1346 -0.307,15.6386 0,2.3 0.332,4.114 0.996,5.443 0.716,1.329 1.789,2.325 3.22,2.99 0.869,0.409 2.223,0.664 4.063,0.766 1.891,0.051 3.603,0.077 5.136,0.077 z m -38.1,-39.9398 c -2.862,0.971 -5.698,2.0954 -8.509,3.373 -2.811,1.2266 -5.111,2.5298 -6.899,3.9097 -1.891,1.431 -3.373,3.2708 -4.447,5.5195 -1.073,2.1976 -1.61,4.8041 -1.61,7.8194 0,3.9862 0.895,6.8742 2.684,8.6622 1.839,1.789 4.088,2.683 6.746,2.683 2.811,0 5.11,-0.562 6.899,-1.686 1.84,-1.175 3.45,-2.606 4.83,-4.293 z"
         id="path4" /><path
         d="m 809.945,81.6665 c 0,10.7835 -3.603,20.0335 -10.809,27.7505 -7.206,7.718 -16.328,11.576 -27.367,11.576 -4.907,0 -8.893,-0.511 -11.959,-1.533 -3.067,-0.971 -5.597,-2.172 -7.59,-3.603 h -0.613 v 21.541 c 0,1.789 0.383,3.348 1.15,4.677 0.818,1.328 1.942,2.3 3.373,2.913 1.38,0.562 3.322,1.073 5.826,1.533 2.555,0.46 4.676,0.741 6.363,0.843 v 5.673 H 712.97 v -5.673 c 1.278,-0.102 2.888,-0.306 4.83,-0.613 1.942,-0.256 3.398,-0.537 4.369,-0.843 1.636,-0.562 2.735,-1.533 3.297,-2.913 0.613,-1.329 0.92,-2.862 0.92,-4.6 V 59.9717 c -0.154,-1.6865 -0.562,-3.1686 -1.227,-4.4463 -0.613,-1.2777 -1.61,-2.402 -2.99,-3.3731 -1.022,-0.6643 -2.376,-1.201 -4.063,-1.6098 -1.686,-0.46 -3.347,-0.7666 -4.982,-0.9199 v -5.5962 l 37.333,-1.9932 1.15,0.9966 v 8.5093 l 0.613,0.1533 c 3.373,-3.4242 7.104,-6.0817 11.193,-7.9727 4.139,-1.8909 8.228,-2.8364 12.265,-2.8364 10.579,0 18.935,3.7563 25.068,11.269 6.133,7.4616 9.199,17.2997 9.199,29.5142 z m -27.521,0.3066 c 0,-3.833 -0.281,-7.4871 -0.843,-10.9624 -0.562,-3.5263 -1.559,-6.6694 -2.99,-9.4292 -1.38,-2.7597 -3.219,-4.9573 -5.519,-6.5927 -2.249,-1.6354 -5.009,-2.4532 -8.28,-2.4532 -3.321,0 -5.979,0.5878 -7.972,1.7632 -1.993,1.1244 -3.731,2.6065 -5.213,4.4463 v 43.4659 c 0.307,1.023 0.894,2.351 1.763,3.987 0.869,1.584 1.738,2.862 2.607,3.833 1.277,1.38 2.734,2.402 4.369,3.066 1.636,0.665 3.424,0.997 5.366,0.997 5.06,0 9.097,-2.709 12.113,-8.126 3.066,-5.469 4.599,-13.4669 4.599,-23.9949 z M 912.569,119 H 866.42 v -5.596 c 1.022,-0.102 2.223,-0.23 3.603,-0.383 1.38,-0.154 2.402,-0.409 3.066,-0.767 1.074,-0.562 1.815,-1.38 2.223,-2.453 0.46,-1.073 0.69,-2.658 0.69,-4.753 V 69.1709 c 0,-5.264 -0.996,-9.1992 -2.989,-11.8057 -1.942,-2.6064 -4.728,-3.9096 -8.356,-3.9096 -2.045,0 -3.961,0.3066 -5.75,0.9199 -1.737,0.6133 -3.449,1.5076 -5.136,2.6831 -1.482,1.0221 -2.683,2.0698 -3.603,3.1431 -0.869,1.0732 -1.61,2.0187 -2.223,2.8364 v 41.1669 c 0,1.891 0.23,3.398 0.69,4.523 0.46,1.073 1.329,1.967 2.606,2.683 0.767,0.46 1.763,0.868 2.99,1.226 1.278,0.358 2.504,0.613 3.68,0.767 V 119 h -46.61 v -5.596 c 1.329,-0.102 2.607,-0.23 3.833,-0.383 1.278,-0.154 2.402,-0.409 3.373,-0.767 1.636,-0.613 2.735,-1.482 3.297,-2.607 0.613,-1.175 0.92,-2.708 0.92,-4.599 V 19.5718 c 0,-1.6354 -0.384,-3.3731 -1.15,-5.2129 -0.767,-1.8399 -1.84,-3.2197 -3.22,-4.1397 -1.022,-0.66435 -2.504,-1.17542 -4.446,-1.53316 -1.942,-0.40886 -3.68,-0.66439 -5.213,-0.76661 V 2.32324 l 38.1,-1.993162 1.15,1.226562 V 54.2988 h 0.306 c 1.943,-1.7376 3.68,-3.2964 5.213,-4.6762 1.585,-1.431 3.501,-2.862 5.75,-4.293 1.891,-1.2266 4.344,-2.2743 7.359,-3.1431 3.067,-0.8688 6.363,-1.3032 9.889,-1.3032 8.28,0 14.489,2.3765 18.629,7.1294 4.191,4.7529 6.286,11.0135 6.286,18.7817 v 37.5636 c 0,1.891 0.281,3.399 0.843,4.523 0.562,1.124 1.61,2.019 3.143,2.683 0.92,0.409 1.942,0.767 3.067,1.073 1.124,0.307 2.504,0.562 4.139,0.767 V 119 Z"
         id="path5" /></g><g
       fill="#ffffff"
       filter="url(#d)"
       id="g8"><path
         d="m 237.906,188.586 c 0,3.297 -1.101,6.125 -3.304,8.484 -2.204,2.36 -4.993,3.539 -8.368,3.539 -1.5,0 -2.718,-0.156 -3.656,-0.468 -0.937,-0.297 -1.711,-0.664 -2.32,-1.102 h -0.188 v 6.586 c 0,0.547 0.118,1.023 0.352,1.43 0.25,0.406 0.594,0.703 1.031,0.89 0.422,0.172 1.016,0.328 1.781,0.469 0.782,0.141 1.43,0.227 1.946,0.258 v 1.734 h -16.922 v -1.734 c 0.39,-0.031 0.883,-0.094 1.476,-0.188 0.594,-0.078 1.039,-0.164 1.336,-0.257 0.5,-0.172 0.836,-0.469 1.008,-0.891 0.188,-0.406 0.281,-0.875 0.281,-1.406 v -23.977 c -0.047,-0.515 -0.171,-0.969 -0.375,-1.359 -0.187,-0.391 -0.492,-0.735 -0.914,-1.032 -0.312,-0.203 -0.726,-0.367 -1.242,-0.492 -0.516,-0.14 -1.023,-0.234 -1.523,-0.281 v -1.711 l 11.414,-0.609 0.351,0.304 v 2.602 l 0.188,0.047 c 1.031,-1.047 2.172,-1.86 3.422,-2.438 1.265,-0.578 2.515,-0.867 3.75,-0.867 3.234,0 5.789,1.149 7.664,3.445 1.875,2.282 2.812,5.29 2.812,9.024 z m -8.414,0.094 c 0,-1.172 -0.086,-2.289 -0.258,-3.352 -0.172,-1.078 -0.476,-2.039 -0.914,-2.883 -0.422,-0.843 -0.984,-1.515 -1.687,-2.015 -0.688,-0.5 -1.531,-0.75 -2.531,-0.75 -1.016,0 -1.829,0.179 -2.438,0.539 -0.609,0.343 -1.141,0.797 -1.594,1.359 v 13.289 c 0.094,0.313 0.274,0.719 0.539,1.219 0.266,0.484 0.532,0.875 0.797,1.172 0.391,0.422 0.836,0.734 1.336,0.937 0.5,0.203 1.047,0.305 1.641,0.305 1.547,0 2.781,-0.828 3.703,-2.484 0.937,-1.672 1.406,-4.118 1.406,-7.336 z M 270.601,200 h -14.11 v -1.711 c 0.313,-0.031 0.68,-0.07 1.102,-0.117 0.422,-0.047 0.734,-0.125 0.938,-0.234 0.328,-0.172 0.554,-0.422 0.679,-0.75 0.141,-0.329 0.211,-0.813 0.211,-1.454 v -10.968 c 0,-1.61 -0.305,-2.813 -0.914,-3.61 -0.594,-0.797 -1.445,-1.195 -2.555,-1.195 -0.625,0 -1.211,0.094 -1.757,0.281 -0.532,0.188 -1.055,0.461 -1.571,0.82 -0.453,0.313 -0.82,0.633 -1.101,0.961 -0.266,0.329 -0.492,0.618 -0.68,0.868 v 12.586 c 0,0.578 0.07,1.039 0.211,1.382 0.141,0.329 0.406,0.602 0.797,0.821 0.234,0.14 0.539,0.265 0.914,0.375 0.391,0.109 0.766,0.187 1.125,0.234 V 200 h -14.25 v -1.711 c 0.406,-0.031 0.797,-0.07 1.172,-0.117 0.39,-0.047 0.734,-0.125 1.031,-0.234 0.5,-0.188 0.836,-0.454 1.008,-0.797 0.187,-0.36 0.281,-0.829 0.281,-1.407 v -26.132 c 0,-0.5 -0.117,-1.032 -0.351,-1.594 -0.235,-0.563 -0.563,-0.985 -0.985,-1.266 -0.312,-0.203 -0.765,-0.359 -1.359,-0.469 -0.594,-0.125 -1.125,-0.203 -1.594,-0.234 v -1.711 l 11.648,-0.609 0.352,0.375 v 16.125 h 0.094 c 0.594,-0.531 1.125,-1.008 1.594,-1.43 0.484,-0.437 1.07,-0.875 1.757,-1.312 0.578,-0.375 1.328,-0.696 2.25,-0.961 0.938,-0.266 1.946,-0.399 3.024,-0.399 2.531,0 4.429,0.727 5.695,2.18 1.281,1.453 1.922,3.367 1.922,5.742 v 11.484 c 0,0.579 0.086,1.039 0.258,1.383 0.172,0.344 0.492,0.617 0.961,0.821 0.281,0.125 0.593,0.234 0.937,0.328 0.344,0.093 0.766,0.172 1.266,0.234 V 200 Z m 25.265,-20.484 c 1.156,1.078 2.039,2.367 2.648,3.867 0.61,1.5 0.914,3.125 0.914,4.875 0,1.734 -0.304,3.375 -0.914,4.922 -0.594,1.531 -1.469,2.843 -2.625,3.937 -1.234,1.172 -2.711,2.071 -4.429,2.695 -1.704,0.626 -3.657,0.938 -5.86,0.938 -1.906,0 -3.664,-0.273 -5.273,-0.82 -1.594,-0.547 -3.008,-1.368 -4.242,-2.461 -1.188,-1.047 -2.125,-2.336 -2.813,-3.867 -0.687,-1.547 -1.031,-3.274 -1.031,-5.18 0,-1.875 0.297,-3.539 0.89,-4.992 0.61,-1.469 1.516,-2.774 2.719,-3.914 1.156,-1.094 2.578,-1.938 4.266,-2.532 1.703,-0.609 3.601,-0.914 5.695,-0.914 2.188,0 4.109,0.305 5.766,0.914 1.672,0.594 3.101,1.438 4.289,2.532 z m -6,16.242 c 0.344,-0.875 0.594,-1.938 0.75,-3.188 0.172,-1.25 0.258,-2.703 0.258,-4.359 0,-1.094 -0.079,-2.344 -0.235,-3.75 -0.156,-1.406 -0.39,-2.516 -0.703,-3.328 -0.375,-0.985 -0.898,-1.758 -1.57,-2.321 -0.656,-0.562 -1.492,-0.843 -2.508,-0.843 -1.109,0 -2,0.304 -2.672,0.914 -0.656,0.609 -1.164,1.398 -1.523,2.367 -0.328,0.891 -0.555,1.938 -0.68,3.141 -0.125,1.187 -0.188,2.429 -0.188,3.726 0,1.703 0.055,3.117 0.165,4.242 0.109,1.11 0.375,2.227 0.796,3.352 0.36,0.969 0.875,1.734 1.547,2.297 0.672,0.562 1.524,0.844 2.555,0.844 0.937,0 1.742,-0.258 2.414,-0.774 0.672,-0.531 1.203,-1.305 1.594,-2.32 z m 29.202,3.164 c -1,0.437 -2.07,0.828 -3.211,1.172 -1.14,0.359 -2.531,0.539 -4.172,0.539 -2.437,0 -4.25,-0.594 -5.437,-1.781 -1.172,-1.188 -1.758,-2.883 -1.758,-5.086 v -14.391 h -4.219 v -2.531 h 4.313 v -7.102 h 7.617 v 7.102 h 6.563 v 2.531 h -6.516 v 12.844 c 0,1.828 0.25,3.125 0.75,3.89 0.516,0.766 1.43,1.149 2.742,1.149 0.422,0 1.008,-0.031 1.758,-0.094 0.75,-0.062 1.273,-0.133 1.57,-0.211 z m 24.749,-19.406 c 1.157,1.078 2.04,2.367 2.649,3.867 0.609,1.5 0.914,3.125 0.914,4.875 0,1.734 -0.305,3.375 -0.914,4.922 -0.594,1.531 -1.469,2.843 -2.625,3.937 -1.234,1.172 -2.711,2.071 -4.43,2.695 -1.703,0.626 -3.656,0.938 -5.859,0.938 -1.906,0 -3.664,-0.273 -5.274,-0.82 -1.593,-0.547 -3.007,-1.368 -4.242,-2.461 -1.187,-1.047 -2.125,-2.336 -2.812,-3.867 -0.688,-1.547 -1.032,-3.274 -1.032,-5.18 0,-1.875 0.297,-3.539 0.891,-4.992 0.609,-1.469 1.516,-2.774 2.719,-3.914 1.156,-1.094 2.578,-1.938 4.265,-2.532 1.704,-0.609 3.602,-0.914 5.696,-0.914 2.187,0 4.109,0.305 5.765,0.914 1.672,0.594 3.102,1.438 4.289,2.532 z m -6,16.242 c 0.344,-0.875 0.594,-1.938 0.75,-3.188 0.172,-1.25 0.258,-2.703 0.258,-4.359 0,-1.094 -0.078,-2.344 -0.234,-3.75 -0.156,-1.406 -0.391,-2.516 -0.703,-3.328 -0.375,-0.985 -0.899,-1.758 -1.571,-2.321 -0.656,-0.562 -1.492,-0.843 -2.507,-0.843 -1.11,0 -2,0.304 -2.672,0.914 -0.656,0.609 -1.164,1.398 -1.524,2.367 -0.328,0.891 -0.554,1.938 -0.679,3.141 -0.125,1.187 -0.188,2.429 -0.188,3.726 0,1.703 0.055,3.117 0.164,4.242 0.11,1.11 0.375,2.227 0.797,3.352 0.359,0.969 0.875,1.734 1.547,2.297 0.672,0.562 1.523,0.844 2.555,0.844 0.937,0 1.742,-0.258 2.414,-0.774 0.672,-0.531 1.203,-1.305 1.593,-2.32 z m 38.015,-16.383 h -5.156 c 0.61,0.687 1.063,1.414 1.36,2.18 0.312,0.765 0.468,1.562 0.468,2.39 0,1.078 -0.289,2.094 -0.867,3.047 -0.578,0.938 -1.336,1.703 -2.273,2.297 -0.953,0.609 -2.071,1.086 -3.352,1.43 -1.281,0.343 -2.672,0.515 -4.172,0.515 h -3.82 c -0.188,0.141 -0.399,0.368 -0.633,0.68 -0.219,0.297 -0.328,0.586 -0.328,0.867 0,0.688 0.273,1.164 0.82,1.43 0.547,0.266 1.539,0.414 2.977,0.445 1.422,0.032 2.859,0.094 4.312,0.188 1.453,0.078 2.493,0.125 3.118,0.14 0.906,0.047 1.804,0.235 2.695,0.563 0.89,0.312 1.664,0.726 2.32,1.242 0.719,0.547 1.313,1.25 1.781,2.109 0.469,0.844 0.704,1.821 0.704,2.93 0,1.188 -0.29,2.305 -0.868,3.352 -0.562,1.047 -1.429,1.953 -2.601,2.718 -1.235,0.797 -2.719,1.414 -4.453,1.852 -1.719,0.438 -3.852,0.656 -6.399,0.656 -4.109,0 -7.234,-0.5 -9.375,-1.5 -2.14,-1 -3.211,-2.5 -3.211,-4.5 0,-1.234 0.578,-2.25 1.735,-3.047 1.156,-0.797 2.953,-1.234 5.39,-1.312 v -0.281 c -1.437,-0.485 -2.562,-1.125 -3.375,-1.922 -0.797,-0.813 -1.195,-1.75 -1.195,-2.813 0,-0.656 0.156,-1.211 0.469,-1.664 0.328,-0.453 0.742,-0.851 1.242,-1.195 0.437,-0.297 0.969,-0.547 1.594,-0.75 0.625,-0.219 1.148,-0.391 1.57,-0.516 v -0.258 c -2.109,-0.781 -3.664,-1.734 -4.664,-2.859 -0.984,-1.125 -1.477,-2.5 -1.477,-4.125 0,-2.297 1.055,-4.133 3.164,-5.508 2.125,-1.375 4.813,-2.062 8.063,-2.062 1.062,0 2.086,0.094 3.07,0.281 1,0.172 1.758,0.328 2.274,0.469 h 9.093 z m -10.992,4.477 c 0,-1.829 -0.289,-3.274 -0.867,-4.336 -0.578,-1.063 -1.469,-1.594 -2.672,-1.594 -0.609,0 -1.14,0.148 -1.594,0.445 -0.453,0.281 -0.82,0.695 -1.101,1.242 -0.266,0.532 -0.445,1.157 -0.539,1.875 -0.094,0.704 -0.141,1.43 -0.141,2.18 0,1.703 0.297,3.102 0.891,4.195 0.594,1.094 1.437,1.641 2.531,1.641 1.125,0 1.984,-0.492 2.578,-1.477 0.61,-0.984 0.914,-2.375 0.914,-4.171 z m 3.938,19.687 c 0,-0.531 -0.149,-1.062 -0.446,-1.594 -0.296,-0.515 -0.961,-0.937 -1.992,-1.265 -0.562,-0.094 -1.492,-0.157 -2.789,-0.188 -1.281,-0.031 -3.047,-0.047 -5.297,-0.047 -0.547,0.469 -1.008,1.024 -1.383,1.664 -0.359,0.641 -0.539,1.414 -0.539,2.321 0,0.39 0.11,0.82 0.329,1.289 0.218,0.469 0.562,0.906 1.031,1.312 0.547,0.453 1.156,0.805 1.828,1.055 0.672,0.266 1.687,0.398 3.047,0.398 2.015,0 3.554,-0.39 4.617,-1.172 1.062,-0.781 1.594,-2.039 1.594,-3.773 z m 31.03,-22.5 c 0,1.188 -0.367,2.234 -1.101,3.141 -0.735,0.89 -1.703,1.336 -2.907,1.336 -1.14,0 -2.109,-0.289 -2.906,-0.868 -0.781,-0.578 -1.172,-1.429 -1.172,-2.554 0,-0.547 0.039,-0.969 0.118,-1.266 0.078,-0.312 0.148,-0.601 0.21,-0.867 -0.718,0.031 -1.476,0.281 -2.273,0.75 -0.797,0.469 -1.5,1.094 -2.109,1.875 v 12.867 c 0,0.547 0.086,1 0.257,1.359 0.172,0.36 0.461,0.641 0.868,0.844 0.343,0.172 0.898,0.321 1.664,0.446 0.781,0.109 1.343,0.171 1.687,0.187 V 200 h -15.679 v -1.711 c 0.39,-0.031 0.781,-0.07 1.171,-0.117 0.407,-0.063 0.75,-0.141 1.032,-0.234 0.5,-0.172 0.843,-0.438 1.031,-0.797 0.187,-0.36 0.281,-0.829 0.281,-1.407 v -13.64 c 0,-0.563 -0.133,-1.063 -0.398,-1.5 -0.266,-0.453 -0.586,-0.813 -0.961,-1.078 -0.281,-0.188 -0.641,-0.344 -1.078,-0.469 -0.422,-0.125 -0.891,-0.211 -1.407,-0.258 v -1.711 l 11.18,-0.609 0.352,0.351 v 3.399 h 0.093 c 1.079,-1.25 2.219,-2.227 3.422,-2.93 1.219,-0.719 2.485,-1.078 3.797,-1.078 1.453,0 2.617,0.453 3.492,1.359 0.891,0.891 1.336,2.047 1.336,3.469 z m 27.609,18.469 c -0.688,0.297 -1.5,0.57 -2.438,0.82 -0.937,0.25 -1.929,0.375 -2.976,0.375 -1.922,0 -3.336,-0.281 -4.242,-0.844 -0.907,-0.578 -1.524,-1.398 -1.852,-2.461 h -0.141 c -0.531,0.532 -1.046,0.985 -1.546,1.36 -0.485,0.375 -1.008,0.695 -1.571,0.961 -0.734,0.343 -1.445,0.593 -2.133,0.75 -0.671,0.172 -1.617,0.258 -2.835,0.258 -1.813,0 -3.36,-0.532 -4.641,-1.594 -1.281,-1.078 -1.922,-2.5 -1.922,-4.266 0,-1.015 0.141,-1.875 0.422,-2.578 0.281,-0.719 0.68,-1.351 1.195,-1.898 0.469,-0.5 1.008,-0.914 1.617,-1.243 0.625,-0.328 1.305,-0.632 2.039,-0.914 1.407,-0.515 3.094,-1.046 5.063,-1.593 1.969,-0.563 3.406,-1.063 4.312,-1.5 v -2.25 c 0,-0.391 -0.031,-0.907 -0.093,-1.547 -0.063,-0.641 -0.196,-1.18 -0.399,-1.617 -0.218,-0.5 -0.562,-0.922 -1.031,-1.266 -0.469,-0.344 -1.086,-0.516 -1.852,-0.516 -0.687,0 -1.265,0.102 -1.734,0.305 -0.453,0.188 -0.82,0.383 -1.101,0.586 0.046,0.312 0.179,0.789 0.398,1.43 0.219,0.64 0.328,1.257 0.328,1.851 0,0.266 -0.07,0.602 -0.211,1.008 -0.14,0.391 -0.344,0.703 -0.609,0.937 -0.36,0.313 -0.766,0.555 -1.219,0.727 -0.437,0.172 -1.117,0.258 -2.039,0.258 -1.313,0 -2.305,-0.313 -2.977,-0.938 -0.671,-0.64 -1.007,-1.468 -1.007,-2.484 0,-0.875 0.343,-1.656 1.031,-2.344 0.703,-0.703 1.555,-1.281 2.555,-1.734 0.984,-0.469 2.117,-0.828 3.398,-1.078 1.281,-0.266 2.469,-0.399 3.562,-0.399 1.516,0 2.907,0.094 4.172,0.282 1.266,0.171 2.407,0.539 3.422,1.101 0.969,0.547 1.735,1.344 2.297,2.391 0.578,1.031 0.867,2.383 0.867,4.054 0,1.766 -0.039,3.86 -0.117,6.282 -0.062,2.422 -0.094,4.015 -0.094,4.781 0,0.703 0.102,1.258 0.305,1.664 0.219,0.406 0.547,0.711 0.984,0.914 0.266,0.125 0.68,0.203 1.243,0.234 0.578,0.016 1.101,0.024 1.57,0.024 z m -11.649,-12.211 c -0.875,0.297 -1.742,0.641 -2.601,1.031 -0.859,0.375 -1.563,0.774 -2.109,1.195 -0.579,0.438 -1.032,1 -1.36,1.688 -0.328,0.672 -0.492,1.469 -0.492,2.391 0,1.218 0.273,2.101 0.82,2.648 0.563,0.547 1.25,0.82 2.063,0.82 0.859,0 1.562,-0.172 2.109,-0.515 0.563,-0.36 1.055,-0.797 1.477,-1.313 z"
         id="path6" /><path
         d="m 456.947,188.586 c 0,3.297 -1.101,6.125 -3.304,8.484 -2.203,2.36 -4.992,3.539 -8.367,3.539 -1.5,0 -2.719,-0.156 -3.657,-0.468 -0.937,-0.297 -1.711,-0.664 -2.32,-1.102 h -0.187 v 6.586 c 0,0.547 0.117,1.023 0.351,1.43 0.25,0.406 0.594,0.703 1.031,0.89 0.422,0.172 1.016,0.328 1.782,0.469 0.781,0.141 1.429,0.227 1.945,0.258 v 1.734 h -16.922 v -1.734 c 0.391,-0.031 0.883,-0.094 1.477,-0.188 0.593,-0.078 1.039,-0.164 1.336,-0.257 0.5,-0.172 0.835,-0.469 1.007,-0.891 0.188,-0.406 0.282,-0.875 0.282,-1.406 v -23.977 c -0.047,-0.515 -0.172,-0.969 -0.375,-1.359 -0.188,-0.391 -0.493,-0.735 -0.914,-1.032 -0.313,-0.203 -0.727,-0.367 -1.243,-0.492 -0.515,-0.14 -1.023,-0.234 -1.523,-0.281 v -1.711 l 11.414,-0.609 0.352,0.304 v 2.602 l 0.187,0.047 c 1.031,-1.047 2.172,-1.86 3.422,-2.438 1.266,-0.578 2.516,-0.867 3.75,-0.867 3.234,0 5.789,1.149 7.664,3.445 1.875,2.282 2.812,5.29 2.812,9.024 z m -8.414,0.094 c 0,-1.172 -0.086,-2.289 -0.257,-3.352 -0.172,-1.078 -0.477,-2.039 -0.914,-2.883 -0.422,-0.843 -0.985,-1.515 -1.688,-2.015 -0.687,-0.5 -1.531,-0.75 -2.531,-0.75 -1.016,0 -1.828,0.179 -2.438,0.539 -0.609,0.343 -1.14,0.797 -1.593,1.359 v 13.289 c 0.093,0.313 0.273,0.719 0.539,1.219 0.265,0.484 0.531,0.875 0.796,1.172 0.391,0.422 0.836,0.734 1.336,0.937 0.5,0.203 1.047,0.305 1.641,0.305 1.547,0 2.781,-0.828 3.703,-2.484 0.938,-1.672 1.406,-4.118 1.406,-7.336 z M 489.642,200 h -14.109 v -1.711 c 0.312,-0.031 0.679,-0.07 1.101,-0.117 0.422,-0.047 0.735,-0.125 0.938,-0.234 0.328,-0.172 0.554,-0.422 0.679,-0.75 0.141,-0.329 0.211,-0.813 0.211,-1.454 v -10.968 c 0,-1.61 -0.304,-2.813 -0.914,-3.61 -0.593,-0.797 -1.445,-1.195 -2.554,-1.195 -0.625,0 -1.211,0.094 -1.758,0.281 -0.531,0.188 -1.055,0.461 -1.57,0.82 -0.454,0.313 -0.821,0.633 -1.102,0.961 -0.266,0.329 -0.492,0.618 -0.68,0.868 v 12.586 c 0,0.578 0.071,1.039 0.211,1.382 0.141,0.329 0.406,0.602 0.797,0.821 0.234,0.14 0.539,0.265 0.914,0.375 0.391,0.109 0.766,0.187 1.125,0.234 V 200 h -14.25 v -1.711 c 0.406,-0.031 0.797,-0.07 1.172,-0.117 0.391,-0.047 0.734,-0.125 1.031,-0.234 0.5,-0.188 0.836,-0.454 1.008,-0.797 0.188,-0.36 0.281,-0.829 0.281,-1.407 v -26.132 c 0,-0.5 -0.117,-1.032 -0.351,-1.594 -0.235,-0.563 -0.563,-0.985 -0.985,-1.266 -0.312,-0.203 -0.765,-0.359 -1.359,-0.469 -0.594,-0.125 -1.125,-0.203 -1.594,-0.234 v -1.711 l 11.649,-0.609 0.351,0.375 v 16.125 h 0.094 c 0.594,-0.531 1.125,-1.008 1.594,-1.43 0.484,-0.437 1.07,-0.875 1.758,-1.312 0.578,-0.375 1.328,-0.696 2.25,-0.961 0.937,-0.266 1.945,-0.399 3.023,-0.399 2.531,0 4.43,0.727 5.695,2.18 1.282,1.453 1.922,3.367 1.922,5.742 v 11.484 c 0,0.579 0.086,1.039 0.258,1.383 0.172,0.344 0.492,0.617 0.961,0.821 0.281,0.125 0.594,0.234 0.937,0.328 0.344,0.093 0.766,0.172 1.266,0.234 V 200 Z m 37.897,-5.602 c -0.547,0.891 -1.211,1.735 -1.992,2.532 -0.766,0.781 -1.641,1.453 -2.625,2.015 -1.047,0.594 -2.109,1.039 -3.188,1.336 -1.062,0.313 -2.289,0.469 -3.679,0.469 -2.313,0 -4.313,-0.328 -6,-0.984 -1.672,-0.657 -3.055,-1.539 -4.149,-2.649 -1.093,-1.109 -1.914,-2.414 -2.461,-3.914 -0.531,-1.515 -0.797,-3.156 -0.797,-4.922 0,-1.593 0.29,-3.117 0.868,-4.57 0.593,-1.469 1.429,-2.773 2.507,-3.914 1.063,-1.109 2.399,-2.008 4.008,-2.695 1.625,-0.688 3.438,-1.032 5.438,-1.032 2.187,0 3.984,0.266 5.39,0.797 1.407,0.531 2.571,1.266 3.493,2.203 0.89,0.891 1.539,1.946 1.945,3.164 0.406,1.204 0.609,2.469 0.609,3.797 v 1.524 h -15.843 c 0,3.203 0.617,5.64 1.851,7.312 1.234,1.672 3.195,2.508 5.883,2.508 1.469,0 2.789,-0.398 3.961,-1.195 1.172,-0.813 2.172,-1.836 3,-3.071 z m -8.953,-8.906 c 0,-0.937 -0.047,-1.898 -0.141,-2.883 -0.093,-0.984 -0.257,-1.789 -0.492,-2.414 -0.265,-0.734 -0.633,-1.289 -1.101,-1.664 -0.454,-0.375 -1.032,-0.562 -1.735,-0.562 -1.203,0 -2.164,0.609 -2.883,1.828 -0.718,1.219 -1.109,3.148 -1.171,5.789 z m 37.124,-7.031 c -0.703,0.109 -1.39,0.375 -2.062,0.797 -0.656,0.422 -1.203,1.078 -1.641,1.969 -1.094,2.281 -2.172,4.585 -3.234,6.914 -1.047,2.312 -2.078,4.554 -3.094,6.726 -0.312,0.656 -0.672,1.5 -1.078,2.531 -0.391,1.032 -0.719,1.969 -0.984,2.813 h -4.313 c -1.797,-4.172 -3.336,-7.633 -4.617,-10.383 -1.266,-2.75 -2.61,-5.703 -4.031,-8.859 -0.329,-0.735 -0.844,-1.313 -1.547,-1.735 -0.688,-0.422 -1.391,-0.679 -2.11,-0.773 v -1.711 h 14.438 v 1.711 c -0.531,0.016 -1.156,0.133 -1.875,0.351 -0.719,0.219 -1.078,0.5 -1.078,0.844 0,0.094 0.031,0.235 0.093,0.422 0.063,0.188 0.141,0.399 0.235,0.633 0.5,1.187 1.25,2.898 2.25,5.133 1.015,2.234 2.086,4.586 3.211,7.054 0.781,-1.703 1.523,-3.367 2.226,-4.992 0.719,-1.64 1.602,-3.726 2.649,-6.258 0.14,-0.375 0.219,-0.679 0.234,-0.914 0.031,-0.234 0.047,-0.39 0.047,-0.468 0,-0.282 -0.141,-0.524 -0.422,-0.727 -0.265,-0.219 -0.586,-0.406 -0.961,-0.562 -0.39,-0.157 -0.765,-0.274 -1.125,-0.352 -0.359,-0.078 -0.656,-0.133 -0.89,-0.164 v -1.711 h 9.679 z m 24.89,15.937 c -0.547,0.891 -1.211,1.735 -1.992,2.532 -0.766,0.781 -1.641,1.453 -2.625,2.015 -1.047,0.594 -2.109,1.039 -3.187,1.336 -1.063,0.313 -2.29,0.469 -3.68,0.469 -2.313,0 -4.313,-0.328 -6,-0.984 -1.672,-0.657 -3.055,-1.539 -4.149,-2.649 -1.093,-1.109 -1.914,-2.414 -2.461,-3.914 -0.531,-1.515 -0.796,-3.156 -0.796,-4.922 0,-1.593 0.289,-3.117 0.867,-4.57 0.594,-1.469 1.429,-2.773 2.508,-3.914 1.062,-1.109 2.398,-2.008 4.007,-2.695 1.625,-0.688 3.438,-1.032 5.438,-1.032 2.187,0 3.984,0.266 5.391,0.797 1.406,0.531 2.57,1.266 3.492,2.203 0.89,0.891 1.539,1.946 1.945,3.164 0.406,1.204 0.609,2.469 0.609,3.797 v 1.524 h -15.843 c 0,3.203 0.617,5.64 1.851,7.312 1.235,1.672 3.196,2.508 5.883,2.508 1.469,0 2.789,-0.398 3.961,-1.195 1.172,-0.813 2.172,-1.836 3,-3.071 z m -8.953,-8.906 c 0,-0.937 -0.047,-1.898 -0.141,-2.883 -0.093,-0.984 -0.257,-1.789 -0.492,-2.414 -0.265,-0.734 -0.633,-1.289 -1.101,-1.664 -0.453,-0.375 -1.032,-0.562 -1.735,-0.562 -1.203,0 -2.164,0.609 -2.882,1.828 -0.719,1.219 -1.11,3.148 -1.172,5.789 z m 33.749,-4.453 c 0,1.188 -0.367,2.234 -1.101,3.141 -0.735,0.89 -1.703,1.336 -2.906,1.336 -1.141,0 -2.11,-0.289 -2.907,-0.868 -0.781,-0.578 -1.172,-1.429 -1.172,-2.554 0,-0.547 0.039,-0.969 0.118,-1.266 0.078,-0.312 0.148,-0.601 0.211,-0.867 -0.719,0.031 -1.477,0.281 -2.274,0.75 -0.797,0.469 -1.5,1.094 -2.109,1.875 v 12.867 c 0,0.547 0.086,1 0.258,1.359 0.171,0.36 0.46,0.641 0.867,0.844 0.343,0.172 0.898,0.321 1.664,0.446 0.781,0.109 1.344,0.171 1.687,0.187 V 200 h -15.679 v -1.711 c 0.39,-0.031 0.781,-0.07 1.171,-0.117 0.407,-0.063 0.75,-0.141 1.032,-0.234 0.5,-0.172 0.843,-0.438 1.031,-0.797 0.187,-0.36 0.281,-0.829 0.281,-1.407 v -13.64 c 0,-0.563 -0.133,-1.063 -0.398,-1.5 -0.266,-0.453 -0.586,-0.813 -0.961,-1.078 -0.281,-0.188 -0.641,-0.344 -1.078,-0.469 -0.422,-0.125 -0.891,-0.211 -1.407,-0.258 v -1.711 l 11.18,-0.609 0.352,0.351 v 3.399 h 0.093 c 1.079,-1.25 2.219,-2.227 3.422,-2.93 1.219,-0.719 2.485,-1.078 3.797,-1.078 1.453,0 2.617,0.453 3.492,1.359 0.891,0.891 1.336,2.047 1.336,3.469 z"
         id="path7" /><path
         d="m 632.7,178.461 c -0.703,0.109 -1.39,0.375 -2.062,0.797 -0.656,0.422 -1.203,1.078 -1.641,1.969 -1.344,2.843 -2.726,5.875 -4.148,9.093 -1.422,3.203 -3,6.672 -4.735,10.407 -0.968,2.093 -1.906,3.765 -2.812,5.015 -0.906,1.25 -1.758,2.211 -2.555,2.883 -0.75,0.625 -1.492,1.078 -2.226,1.359 -0.735,0.282 -1.477,0.422 -2.227,0.422 -1.484,0 -2.687,-0.414 -3.609,-1.242 -0.907,-0.828 -1.36,-1.758 -1.36,-2.789 0,-0.437 0.047,-0.844 0.141,-1.219 0.109,-0.375 0.328,-0.765 0.656,-1.172 0.25,-0.343 0.633,-0.64 1.149,-0.89 0.531,-0.235 1.125,-0.352 1.781,-0.352 0.875,0 1.711,0.305 2.508,0.914 0.797,0.61 1.625,1.453 2.484,2.532 0.516,-0.516 1.149,-1.29 1.899,-2.321 0.765,-1.015 1.328,-2.062 1.687,-3.14 -1.859,-3.907 -3.508,-7.289 -4.945,-10.149 -1.438,-2.875 -3.047,-6.078 -4.828,-9.609 -0.391,-0.75 -0.914,-1.328 -1.571,-1.735 -0.656,-0.422 -1.351,-0.679 -2.086,-0.773 v -1.711 h 14.344 v 1.711 c -0.531,0.016 -1.148,0.133 -1.851,0.351 -0.688,0.219 -1.032,0.5 -1.032,0.844 0,0.125 0.024,0.266 0.071,0.422 0.046,0.141 0.132,0.352 0.257,0.633 0.532,1.094 1.282,2.617 2.25,4.57 0.985,1.938 2.125,4.211 3.422,6.821 0.969,-2.219 1.789,-4.125 2.461,-5.719 0.688,-1.61 1.352,-3.188 1.992,-4.735 0.157,-0.39 0.243,-0.695 0.258,-0.914 0.031,-0.234 0.047,-0.39 0.047,-0.468 0,-0.282 -0.141,-0.524 -0.422,-0.727 -0.265,-0.219 -0.586,-0.406 -0.961,-0.562 -0.39,-0.157 -0.765,-0.274 -1.125,-0.352 -0.359,-0.078 -0.656,-0.133 -0.89,-0.164 v -1.711 h 9.679 z m 37.311,0.914 h -5.156 c 0.61,0.687 1.063,1.414 1.36,2.18 0.312,0.765 0.468,1.562 0.468,2.39 0,1.078 -0.289,2.094 -0.867,3.047 -0.578,0.938 -1.336,1.703 -2.273,2.297 -0.953,0.609 -2.071,1.086 -3.352,1.43 -1.281,0.343 -2.672,0.515 -4.172,0.515 h -3.82 c -0.188,0.141 -0.399,0.368 -0.633,0.68 -0.219,0.297 -0.328,0.586 -0.328,0.867 0,0.688 0.273,1.164 0.82,1.43 0.547,0.266 1.539,0.414 2.977,0.445 1.422,0.032 2.859,0.094 4.312,0.188 1.453,0.078 2.493,0.125 3.118,0.14 0.906,0.047 1.804,0.235 2.695,0.563 0.89,0.312 1.664,0.726 2.32,1.242 0.719,0.547 1.313,1.25 1.781,2.109 0.469,0.844 0.704,1.821 0.704,2.93 0,1.188 -0.29,2.305 -0.868,3.352 -0.562,1.047 -1.429,1.953 -2.601,2.718 -1.235,0.797 -2.719,1.414 -4.453,1.852 -1.719,0.438 -3.852,0.656 -6.399,0.656 -4.109,0 -7.234,-0.5 -9.375,-1.5 -2.14,-1 -3.211,-2.5 -3.211,-4.5 0,-1.234 0.578,-2.25 1.735,-3.047 1.156,-0.797 2.953,-1.234 5.39,-1.312 v -0.281 c -1.437,-0.485 -2.562,-1.125 -3.375,-1.922 -0.797,-0.813 -1.195,-1.75 -1.195,-2.813 0,-0.656 0.156,-1.211 0.469,-1.664 0.328,-0.453 0.742,-0.851 1.242,-1.195 0.437,-0.297 0.969,-0.547 1.594,-0.75 0.625,-0.219 1.148,-0.391 1.57,-0.516 v -0.258 c -2.109,-0.781 -3.664,-1.734 -4.664,-2.859 -0.984,-1.125 -1.477,-2.5 -1.477,-4.125 0,-2.297 1.055,-4.133 3.164,-5.508 2.125,-1.375 4.813,-2.062 8.063,-2.062 1.062,0 2.086,0.094 3.07,0.281 1,0.172 1.758,0.328 2.274,0.469 h 9.093 z m -10.992,4.477 c 0,-1.829 -0.289,-3.274 -0.867,-4.336 -0.578,-1.063 -1.469,-1.594 -2.672,-1.594 -0.609,0 -1.14,0.148 -1.594,0.445 -0.453,0.281 -0.82,0.695 -1.101,1.242 -0.266,0.532 -0.445,1.157 -0.539,1.875 -0.094,0.704 -0.141,1.43 -0.141,2.18 0,1.703 0.297,3.102 0.891,4.195 0.594,1.094 1.437,1.641 2.531,1.641 1.125,0 1.984,-0.492 2.578,-1.477 0.61,-0.984 0.914,-2.375 0.914,-4.171 z m 3.938,19.687 c 0,-0.531 -0.149,-1.062 -0.446,-1.594 -0.296,-0.515 -0.961,-0.937 -1.992,-1.265 -0.562,-0.094 -1.492,-0.157 -2.789,-0.188 -1.281,-0.031 -3.047,-0.047 -5.297,-0.047 -0.547,0.469 -1.008,1.024 -1.383,1.664 -0.359,0.641 -0.539,1.414 -0.539,2.321 0,0.39 0.11,0.82 0.329,1.289 0.218,0.469 0.562,0.906 1.031,1.312 0.547,0.453 1.156,0.805 1.828,1.055 0.672,0.266 1.687,0.398 3.047,0.398 2.015,0 3.554,-0.39 4.617,-1.172 1.062,-0.781 1.594,-2.039 1.594,-3.773 z m 31.03,-22.5 c 0,1.188 -0.367,2.234 -1.101,3.141 -0.735,0.89 -1.703,1.336 -2.907,1.336 -1.14,0 -2.109,-0.289 -2.906,-0.868 -0.781,-0.578 -1.172,-1.429 -1.172,-2.554 0,-0.547 0.039,-0.969 0.118,-1.266 0.078,-0.312 0.148,-0.601 0.21,-0.867 -0.718,0.031 -1.476,0.281 -2.273,0.75 -0.797,0.469 -1.5,1.094 -2.109,1.875 v 12.867 c 0,0.547 0.086,1 0.257,1.359 0.172,0.36 0.461,0.641 0.868,0.844 0.343,0.172 0.898,0.321 1.664,0.446 0.781,0.109 1.343,0.171 1.687,0.187 V 200 h -15.679 v -1.711 c 0.39,-0.031 0.781,-0.07 1.171,-0.117 0.407,-0.063 0.75,-0.141 1.032,-0.234 0.5,-0.172 0.843,-0.438 1.031,-0.797 0.187,-0.36 0.281,-0.829 0.281,-1.407 v -13.64 c 0,-0.563 -0.133,-1.063 -0.398,-1.5 -0.266,-0.453 -0.586,-0.813 -0.961,-1.078 -0.281,-0.188 -0.641,-0.344 -1.078,-0.469 -0.422,-0.125 -0.891,-0.211 -1.407,-0.258 v -1.711 l 11.18,-0.609 0.352,0.351 v 3.399 h 0.093 c 1.079,-1.25 2.219,-2.227 3.422,-2.93 1.219,-0.719 2.485,-1.078 3.797,-1.078 1.453,0 2.617,0.453 3.492,1.359 0.891,0.891 1.336,2.047 1.336,3.469 z M 709.619,200 h -14.812 v -1.711 c 0.406,-0.031 0.805,-0.07 1.195,-0.117 0.391,-0.047 0.727,-0.125 1.008,-0.234 0.5,-0.188 0.852,-0.454 1.055,-0.797 0.203,-0.36 0.304,-0.829 0.304,-1.407 v -13.64 c 0,-0.547 -0.125,-1.024 -0.375,-1.43 -0.25,-0.422 -0.562,-0.758 -0.937,-1.008 -0.281,-0.187 -0.711,-0.367 -1.289,-0.539 -0.563,-0.172 -1.078,-0.281 -1.547,-0.328 v -1.711 l 11.484,-0.609 0.352,0.351 v 18.61 c 0,0.547 0.117,1.015 0.351,1.406 0.235,0.375 0.571,0.656 1.008,0.844 0.313,0.14 0.657,0.265 1.032,0.375 0.375,0.109 0.765,0.187 1.171,0.234 V 200 Z m -3.421,-31.969 c 0,1.188 -0.461,2.203 -1.383,3.047 -0.907,0.828 -1.985,1.242 -3.235,1.242 -1.265,0 -2.359,-0.414 -3.281,-1.242 -0.906,-0.844 -1.359,-1.859 -1.359,-3.047 0,-1.187 0.453,-2.203 1.359,-3.047 0.922,-0.843 2.016,-1.265 3.281,-1.265 1.266,0 2.352,0.422 3.258,1.265 0.906,0.844 1.36,1.86 1.36,3.047 z m 35.061,31.477 -11.554,0.68 -0.352,-0.329 v -2.156 l -0.164,-0.047 c -0.766,0.828 -1.805,1.555 -3.117,2.18 -1.297,0.609 -2.61,0.914 -3.938,0.914 -3.156,0 -5.758,-1.172 -7.804,-3.516 -2.047,-2.343 -3.071,-5.375 -3.071,-9.093 0,-3.297 1.141,-6.125 3.422,-8.485 2.297,-2.359 5.07,-3.539 8.32,-3.539 1.282,0 2.485,0.149 3.61,0.445 1.125,0.282 2.023,0.618 2.695,1.008 v -7.664 c 0,-0.578 -0.117,-1.117 -0.351,-1.617 -0.235,-0.516 -0.547,-0.914 -0.938,-1.195 -0.484,-0.344 -1.094,-0.586 -1.828,-0.727 -0.719,-0.156 -1.445,-0.265 -2.18,-0.328 v -1.711 l 12.657,-0.609 0.351,0.375 v 30.726 c 0,0.594 0.094,1.094 0.281,1.5 0.203,0.407 0.524,0.727 0.961,0.961 0.328,0.172 0.805,0.297 1.43,0.375 0.641,0.078 1.164,0.125 1.57,0.141 z m -11.953,-4.172 v -13.242 c -0.109,-0.36 -0.265,-0.758 -0.469,-1.196 -0.187,-0.437 -0.453,-0.851 -0.796,-1.242 -0.313,-0.328 -0.735,-0.617 -1.266,-0.867 -0.516,-0.25 -1.102,-0.375 -1.758,-0.375 -1.562,0 -2.844,0.883 -3.844,2.648 -1,1.766 -1.5,4.258 -1.5,7.477 0,1.266 0.086,2.406 0.258,3.422 0.188,1 0.508,1.914 0.961,2.742 0.453,0.828 1.031,1.477 1.734,1.945 0.719,0.469 1.579,0.704 2.579,0.704 0.953,0 1.742,-0.18 2.367,-0.54 0.625,-0.374 1.203,-0.867 1.734,-1.476 z m 34.874,5.461 c -1.516,0 -3,-0.227 -4.453,-0.68 -1.438,-0.437 -2.555,-0.906 -3.352,-1.406 l -0.703,1.594 h -1.828 l -0.305,-8.743 h 1.711 c 0.234,0.704 0.625,1.5 1.172,2.391 0.547,0.875 1.172,1.664 1.875,2.367 0.734,0.703 1.57,1.297 2.508,1.782 0.953,0.484 1.968,0.726 3.047,0.726 1.421,0 2.476,-0.273 3.164,-0.82 0.703,-0.563 1.054,-1.422 1.054,-2.578 0,-0.625 -0.156,-1.141 -0.468,-1.547 -0.313,-0.406 -0.743,-0.758 -1.289,-1.055 -0.61,-0.312 -1.282,-0.578 -2.016,-0.797 -0.719,-0.219 -1.609,-0.484 -2.672,-0.797 -1.062,-0.312 -1.977,-0.625 -2.742,-0.937 -0.75,-0.328 -1.531,-0.836 -2.344,-1.524 -0.703,-0.609 -1.266,-1.343 -1.687,-2.203 -0.422,-0.859 -0.633,-1.882 -0.633,-3.07 0,-2.203 0.922,-3.984 2.765,-5.344 1.86,-1.359 4.289,-2.039 7.289,-2.039 1.422,0 2.727,0.149 3.915,0.445 1.203,0.282 2.21,0.594 3.023,0.938 l 0.492,-1.383 h 1.781 l 0.375,7.992 h -1.664 c -0.547,-1.625 -1.484,-3.023 -2.812,-4.195 -1.328,-1.187 -2.758,-1.781 -4.289,-1.781 -1.203,0 -2.149,0.25 -2.836,0.75 -0.688,0.5 -1.031,1.195 -1.031,2.086 0,1.187 0.5,2.047 1.5,2.578 1.015,0.531 2.429,1.031 4.242,1.5 2.797,0.719 4.844,1.703 6.14,2.953 1.297,1.234 1.946,2.812 1.946,4.734 0,2.563 -1.008,4.547 -3.024,5.954 -2,1.406 -4.617,2.109 -7.851,2.109 z m 43.335,9.609 h -16.406 v -1.734 c 0.437,-0.031 0.961,-0.086 1.57,-0.164 0.625,-0.063 1.109,-0.156 1.453,-0.281 0.485,-0.157 0.828,-0.438 1.031,-0.844 0.204,-0.406 0.305,-0.891 0.305,-1.453 v -8.18 l -0.187,-0.047 c -0.266,0.25 -0.618,0.555 -1.055,0.914 -0.422,0.36 -0.938,0.68 -1.547,0.961 -0.672,0.328 -1.32,0.578 -1.945,0.75 -0.61,0.188 -1.422,0.281 -2.438,0.281 -3.25,0 -5.875,-1.125 -7.875,-3.375 -2,-2.25 -3,-5.281 -3,-9.093 0,-3.453 1.196,-6.321 3.586,-8.602 2.391,-2.281 5.414,-3.422 9.071,-3.422 1.843,0 3.507,0.211 4.992,0.633 1.484,0.406 2.867,0.945 4.148,1.617 l 3.047,-3 1.289,0.305 c -0.047,0.984 -0.125,2.273 -0.234,3.867 -0.094,1.578 -0.141,2.891 -0.141,3.938 v 22.054 c 0,0.578 0.102,1.071 0.305,1.477 0.219,0.422 0.562,0.734 1.031,0.937 0.344,0.157 0.813,0.305 1.406,0.446 0.594,0.14 1.125,0.234 1.594,0.281 z m -12.047,-15.07 v -13.242 c -0.109,-0.391 -0.265,-0.813 -0.469,-1.266 -0.187,-0.453 -0.461,-0.89 -0.82,-1.312 -0.344,-0.391 -0.773,-0.711 -1.289,-0.961 -0.5,-0.25 -1.109,-0.375 -1.828,-0.375 -1.563,0 -2.828,0.914 -3.797,2.742 -0.953,1.828 -1.43,4.351 -1.43,7.57 0,1.313 0.102,2.477 0.305,3.492 0.203,1 0.508,1.875 0.914,2.625 0.469,0.829 1.031,1.469 1.688,1.922 0.656,0.453 1.531,0.68 2.625,0.68 1,0 1.812,-0.164 2.437,-0.492 0.625,-0.344 1.18,-0.805 1.664,-1.383 z m 42.538,4.172 -11.179,0.68 -0.352,-0.329 v -3.07 h -0.14 c -0.532,0.484 -1.055,0.961 -1.571,1.43 -0.5,0.453 -1.101,0.867 -1.804,1.242 -0.797,0.422 -1.555,0.734 -2.274,0.937 -0.703,0.204 -1.734,0.305 -3.094,0.305 -2.359,0 -4.171,-0.711 -5.437,-2.133 -1.25,-1.422 -1.875,-3.429 -1.875,-6.023 V 182 c 0,-0.609 -0.117,-1.102 -0.352,-1.477 -0.234,-0.39 -0.547,-0.734 -0.937,-1.031 -0.313,-0.234 -0.719,-0.398 -1.219,-0.492 -0.5,-0.109 -0.953,-0.18 -1.359,-0.211 v -1.711 l 11.367,-0.609 0.258,0.351 v 15.586 c 0,1.61 0.304,2.797 0.914,3.563 0.625,0.765 1.476,1.148 2.554,1.148 1.11,0 2.102,-0.289 2.977,-0.867 0.891,-0.578 1.539,-1.195 1.945,-1.852 v -12.632 c 0,-0.532 -0.101,-1.008 -0.304,-1.43 -0.203,-0.422 -0.5,-0.766 -0.891,-1.031 -0.281,-0.188 -0.687,-0.313 -1.219,-0.375 -0.515,-0.063 -1.047,-0.11 -1.593,-0.141 v -1.711 l 11.367,-0.609 0.351,0.351 v 18.094 c 0,0.547 0.11,1.016 0.328,1.406 0.219,0.375 0.539,0.696 0.961,0.961 0.297,0.188 0.68,0.321 1.149,0.399 0.484,0.062 0.961,0.101 1.429,0.117 z m 27.867,0 c -0.688,0.297 -1.5,0.57 -2.438,0.82 -0.937,0.25 -1.929,0.375 -2.976,0.375 -1.922,0 -3.336,-0.281 -4.242,-0.844 -0.907,-0.578 -1.524,-1.398 -1.852,-2.461 h -0.14 c -0.532,0.532 -1.047,0.985 -1.547,1.36 -0.485,0.375 -1.008,0.695 -1.571,0.961 -0.734,0.343 -1.445,0.593 -2.132,0.75 -0.672,0.172 -1.618,0.258 -2.836,0.258 -1.813,0 -3.36,-0.532 -4.641,-1.594 -1.281,-1.078 -1.922,-2.5 -1.922,-4.266 0,-1.015 0.141,-1.875 0.422,-2.578 0.281,-0.719 0.68,-1.351 1.195,-1.898 0.469,-0.5 1.008,-0.914 1.617,-1.243 0.625,-0.328 1.305,-0.632 2.04,-0.914 1.406,-0.515 3.093,-1.046 5.062,-1.593 1.969,-0.563 3.406,-1.063 4.313,-1.5 v -2.25 c 0,-0.391 -0.032,-0.907 -0.094,-1.547 -0.063,-0.641 -0.196,-1.18 -0.399,-1.617 -0.218,-0.5 -0.562,-0.922 -1.031,-1.266 -0.469,-0.344 -1.086,-0.516 -1.851,-0.516 -0.688,0 -1.266,0.102 -1.735,0.305 -0.453,0.188 -0.82,0.383 -1.101,0.586 0.046,0.312 0.179,0.789 0.398,1.43 0.219,0.64 0.328,1.257 0.328,1.851 0,0.266 -0.07,0.602 -0.211,1.008 -0.14,0.391 -0.344,0.703 -0.609,0.937 -0.36,0.313 -0.766,0.555 -1.219,0.727 -0.437,0.172 -1.117,0.258 -2.039,0.258 -1.312,0 -2.305,-0.313 -2.977,-0.938 -0.671,-0.64 -1.007,-1.468 -1.007,-2.484 0,-0.875 0.343,-1.656 1.031,-2.344 0.703,-0.703 1.555,-1.281 2.555,-1.734 0.984,-0.469 2.117,-0.828 3.398,-1.078 1.281,-0.266 2.469,-0.399 3.563,-0.399 1.515,0 2.906,0.094 4.171,0.282 1.266,0.171 2.407,0.539 3.422,1.101 0.969,0.547 1.735,1.344 2.297,2.391 0.578,1.031 0.867,2.383 0.867,4.054 0,1.766 -0.039,3.86 -0.117,6.282 -0.062,2.422 -0.094,4.015 -0.094,4.781 0,0.703 0.102,1.258 0.305,1.664 0.219,0.406 0.547,0.711 0.984,0.914 0.266,0.125 0.68,0.203 1.243,0.234 0.578,0.016 1.101,0.024 1.57,0.024 z m -11.648,-12.211 c -0.875,0.297 -1.743,0.641 -2.602,1.031 -0.859,0.375 -1.563,0.774 -2.109,1.195 -0.579,0.438 -1.032,1 -1.36,1.688 -0.328,0.672 -0.492,1.469 -0.492,2.391 0,1.218 0.273,2.101 0.82,2.648 0.563,0.547 1.25,0.82 2.063,0.82 0.859,0 1.562,-0.172 2.109,-0.515 0.563,-0.36 1.055,-0.797 1.477,-1.313 z m 35.975,-6.258 c 0,1.188 -0.367,2.234 -1.101,3.141 -0.735,0.89 -1.703,1.336 -2.906,1.336 -1.141,0 -2.11,-0.289 -2.907,-0.868 -0.781,-0.578 -1.172,-1.429 -1.172,-2.554 0,-0.547 0.04,-0.969 0.118,-1.266 0.078,-0.312 0.148,-0.601 0.211,-0.867 -0.719,0.031 -1.477,0.281 -2.274,0.75 -0.797,0.469 -1.5,1.094 -2.109,1.875 v 12.867 c 0,0.547 0.086,1 0.258,1.359 0.171,0.36 0.461,0.641 0.867,0.844 0.344,0.172 0.898,0.321 1.664,0.446 0.781,0.109 1.344,0.171 1.687,0.187 V 200 h -15.679 v -1.711 c 0.39,-0.031 0.781,-0.07 1.172,-0.117 0.406,-0.063 0.75,-0.141 1.031,-0.234 0.5,-0.172 0.844,-0.438 1.031,-0.797 0.188,-0.36 0.281,-0.829 0.281,-1.407 v -13.64 c 0,-0.563 -0.133,-1.063 -0.398,-1.5 -0.266,-0.453 -0.586,-0.813 -0.961,-1.078 -0.281,-0.188 -0.641,-0.344 -1.078,-0.469 -0.422,-0.125 -0.891,-0.211 -1.406,-0.258 v -1.711 l 11.179,-0.609 0.352,0.351 v 3.399 h 0.094 c 1.078,-1.25 2.218,-2.227 3.421,-2.93 1.219,-0.719 2.485,-1.078 3.797,-1.078 1.453,0 2.617,0.453 3.492,1.359 0.891,0.891 1.336,2.047 1.336,3.469 z m 26.015,13.359 c -0.547,0.891 -1.211,1.735 -1.992,2.532 -0.766,0.781 -1.641,1.453 -2.625,2.015 -1.047,0.594 -2.109,1.039 -3.187,1.336 -1.063,0.313 -2.289,0.469 -3.68,0.469 -2.313,0 -4.313,-0.328 -6,-0.984 -1.672,-0.657 -3.055,-1.539 -4.149,-2.649 -1.093,-1.109 -1.914,-2.414 -2.46,-3.914 -0.532,-1.515 -0.797,-3.156 -0.797,-4.922 0,-1.593 0.289,-3.117 0.867,-4.57 0.594,-1.469 1.43,-2.773 2.508,-3.914 1.062,-1.109 2.398,-2.008 4.007,-2.695 1.625,-0.688 3.438,-1.032 5.438,-1.032 2.187,0 3.984,0.266 5.391,0.797 1.406,0.531 2.57,1.266 3.492,2.203 0.89,0.891 1.539,1.946 1.945,3.164 0.406,1.204 0.609,2.469 0.609,3.797 v 1.524 h -15.843 c 0,3.203 0.617,5.64 1.851,7.312 1.235,1.672 3.196,2.508 5.883,2.508 1.469,0 2.789,-0.398 3.961,-1.195 1.172,-0.813 2.172,-1.836 3,-3.071 z m -8.953,-8.906 c 0,-0.937 -0.047,-1.898 -0.14,-2.883 -0.094,-0.984 -0.258,-1.789 -0.493,-2.414 -0.265,-0.734 -0.632,-1.289 -1.101,-1.664 -0.453,-0.375 -1.031,-0.562 -1.735,-0.562 -1.203,0 -2.164,0.609 -2.882,1.828 -0.719,1.219 -1.11,3.148 -1.172,5.789 z m 22.64,-15.047 c 0,0.641 -0.117,1.493 -0.351,2.555 -0.219,1.047 -0.5,2.281 -0.844,3.703 -0.328,1.344 -0.703,3.024 -1.125,5.039 -0.422,2 -0.867,4.477 -1.336,7.43 h -1.805 c -0.469,-2.984 -0.914,-5.469 -1.336,-7.453 -0.422,-1.985 -0.797,-3.649 -1.125,-4.992 -0.297,-1.235 -0.57,-2.438 -0.82,-3.61 -0.25,-1.187 -0.375,-2.078 -0.375,-2.672 0,-1.203 0.445,-2.226 1.336,-3.07 0.89,-0.859 1.961,-1.289 3.211,-1.289 1.234,0 2.304,0.43 3.211,1.289 0.906,0.844 1.359,1.867 1.359,3.07 z m -0.047,25.899 c 0,1.187 -0.453,2.211 -1.359,3.07 -0.891,0.844 -1.938,1.266 -3.141,1.266 -1.219,0 -2.281,-0.422 -3.187,-1.266 -0.891,-0.859 -1.336,-1.883 -1.336,-3.07 0,-1.188 0.445,-2.211 1.336,-3.071 0.906,-0.875 1.968,-1.312 3.187,-1.312 1.203,0 2.25,0.437 3.141,1.312 0.906,0.86 1.359,1.883 1.359,3.071 z"
         id="path8" /></g></g><defs
     id="defs15"><filter
       id="b"
       width="203"
       height="227"
       x="0"
       y="1"
       color-interpolation-filters="sRGB"
       filterUnits="userSpaceOnUse"><feFlood
         flood-opacity="0"
         result="BackgroundImageFix"
         id="feFlood9" /><feColorMatrix
         in="SourceAlpha"
         result="hardAlpha"
         values="0 0 0 0 0 0 0 0 0 0 0 0 0 0 0 0 0 0 127 0"
         id="feColorMatrix9" /><feOffset
         dx="5"
         dy="5"
         id="feOffset9" /><feGaussianBlur
         stdDeviation="1.5"
         id="feGaussianBlur9" /><feColorMatrix
         values="0 0 0 0 0 0 0 0 0 0 0 0 0 0 0 0 0 0 0.5 0"
         id="feColorMatrix10" /><feBlend
         in2="BackgroundImageFix"
         result="effect1_dropShadow_101_2"
         id="feBlend10"
         mode="normal" /><feBlend
         in="SourceGraphic"
         in2="effect1_dropShadow_101_2"
         result="shape"
         id="feBlend11"
         mode="normal" /></filter><filter
       id="c"
       width="710.42297"
       height="160.707"
       x="210.146"
       y="0.33007801"
       color-interpolation-filters="sRGB"
       filterUnits="userSpaceOnUse"><feFlood
         flood-opacity="0"
         result="BackgroundImageFix"
         id="feFlood11" /><feColorMatrix
         in="SourceAlpha"
         result="hardAlpha"
         values="0 0 0 0 0 0 0 0 0 0 0 0 0 0 0 0 0 0 127 0"
         id="feColorMatrix11" /><feOffset
         dx="5"
         dy="5"
         id="feOffset11" /><feGaussianBlur
         stdDeviation="1.5"
         id="feGaussianBlur11" /><feColorMatrix
         values="0 0 0 0 0 0 0 0 0 0 0 0 0 0 0 0 0 0 0.5 0"
         id="feColorMatrix12" /><feBlend
         in2="BackgroundImageFix"
         result="effect1_dropShadow_101_2"
         id="feBlend12"
         mode="normal" /><feBlend
         in="SourceGraphic"
         in2="effect1_dropShadow_101_2"
         result="shape"
         id="feBlend13"
         mode="normal" /></filter><filter
       id="d"
       width="729.64398"
       height="54.6875"
       x="208.258"
       y="163.71899"
       color-interpolation-filters="sRGB"
       filterUnits="userSpaceOnUse"><feFlood
         flood-opacity="0"
         result="BackgroundImageFix"
         id="feFlood13" /><feColorMatrix
         in="SourceAlpha"
         result="hardAlpha"
         values="0 0 0 0 0 0 0 0 0 0 0 0 0 0 0 0 0 0 127 0"
         id="feColorMatrix13" /><feOffset
         dx="5"
         dy="5"
         id="feOffset13" /><feGaussianBlur
         stdDeviation="1.5"
         id="feGaussianBlur13" /><feColorMatrix
         values="0 0 0 0 0 0 0 0 0 0 0 0 0 0 0 0 0 0 0.5 0"
         id="feColorMatrix14" /><feBlend
         in2="BackgroundImageFix"
         result="effect1_dropShadow_101_2"
         id="feBlend14"
         mode="normal" /><feBlend
         in="SourceGraphic"
         in2="effect1_dropShadow_101_2"
         result="shape"
         id="feBlend15"
         mode="normal" /></filter><clipPath
       id="a"><path
         fill="#ffffff"
         d="M 0,0 H 938 V 228 H 0 Z"
         id="path15" /></clipPath></defs></svg>
