<?xml version="1.0" encoding="iso-8859-1"?>
<!DOCTYPE svg PUBLIC "-//W3C//DTD SVG 1.1//EN" "http://www.w3.org/Graphics/SVG/1.1/DTD/svg11.dtd">
<svg fill="#000000" height="800px" width="800px" version="1.1" id="sign" xmlns="http://www.w3.org/2000/svg" xmlns:xlink="http://www.w3.org/1999/xlink" 
	 viewBox="0 0 329.562 329.562" xml:space="preserve">
<g>
	<path d="M326.174,272.922l-139.5-241.568c-4.517-7.821-12.861-12.638-21.893-12.638c-9.031,0-17.377,4.816-21.893,12.638
		L3.388,272.922c-4.518,7.821-4.518,17.46-0.002,25.282c4.516,7.822,12.862,12.641,21.895,12.641h279
		c9.032,0,17.379-4.818,21.895-12.641C330.691,290.382,330.69,280.744,326.174,272.922z M25.281,285.565l139.5-241.568
		l139.5,241.568H25.281z"/>
	<polygon points="188.814,270.468 207.67,270.468 207.67,203.858 192.875,174.437 192.875,137.134 174.019,137.134 174.019,178.912 
		188.814,208.333"/>
	<polygon points="136.687,174.437 121.892,203.858 121.892,270.468 140.748,270.468 140.748,208.333 155.543,178.912 
		155.543,137.134 136.687,137.134"/>
</g>
</svg>