<svg style="background-color: #ffffff" width="664" height="187" viewBox="0 0 664 187" xmlns="http://www.w3.org/2000/svg">
  <g transform="translate(20, 136.16)">
    <path d="M15.48 0L-0.60 0L37.20-84L52.56-84L90.48 0L74.16 0L41.64-75.72L47.88-75.72L15.48 0ZM70.56-19.44L16.80-19.44L21-31.68L66.36-31.68L70.56-19.44Z M111.72 0L96.72 0L96.72-64.08L111.72-64.08L111.72 0ZM104.28-74.64L104.28-74.64Q100.08-74.64 97.38-77.28Q94.68-79.92 94.68-83.64L94.68-83.64Q94.68-87.48 97.38-90.06Q100.08-92.64 104.28-92.64L104.28-92.64Q108.48-92.64 111.18-90.18Q113.88-87.72 113.88-84L113.88-84Q113.88-80.04 111.24-77.34Q108.60-74.64 104.28-74.64Z M143.40 0L128.40 0L128.40-64.08L142.68-64.08L142.68-46.44L141-51.60Q143.88-58.08 150.06-61.44Q156.24-64.80 165.48-64.80L165.48-64.80L165.48-50.52Q164.52-50.76 163.68-50.82Q162.84-50.88 162-50.88L162-50.88Q153.48-50.88 148.44-45.90Q143.40-40.92 143.40-31.08L143.40-31.08L143.40 0Z M246.72 1.20L246.72 1.20Q236.88 1.20 228.60-2.04Q220.32-5.28 214.20-11.10Q208.08-16.92 204.72-24.78Q201.36-32.64 201.36-42L201.36-42Q201.36-51.36 204.72-59.22Q208.08-67.08 214.20-72.90Q220.32-78.72 228.60-81.96Q236.88-85.20 246.60-85.20L246.60-85.20Q256.44-85.20 264.66-81.96Q272.88-78.72 279-72.96Q285.12-67.20 288.48-59.28Q291.84-51.36 291.84-42L291.84-42Q291.84-32.64 288.48-24.72Q285.12-16.80 279-11.04Q272.88-5.28 264.66-2.04Q256.44 1.20 246.72 1.20ZM274.08 18.36L274.08 18.36Q269.64 18.36 265.50 17.34Q261.36 16.32 257.34 13.98Q253.32 11.64 249 7.86Q244.68 4.08 239.52-1.44L239.52-1.44L256.08-5.76Q259.44-1.32 262.50 1.38Q265.56 4.08 268.44 5.28Q271.32 6.48 274.44 6.48L274.44 6.48Q282.72 6.48 288.84-0.24L288.84-0.24L296.04 8.40Q287.64 18.36 274.08 18.36ZM246.60-12.48L246.60-12.48Q252.96-12.48 258.36-14.64Q263.76-16.80 267.72-20.82Q271.68-24.84 273.90-30.24Q276.12-35.64 276.12-42L276.12-42Q276.12-48.48 273.90-53.82Q271.68-59.16 267.72-63.18Q263.76-67.20 258.36-69.36Q252.96-71.52 246.60-71.52L246.60-71.52Q240.24-71.52 234.84-69.36Q229.44-67.20 225.48-63.18Q221.52-59.16 219.30-53.82Q217.08-48.48 217.08-42L217.08-42Q217.08-35.64 219.30-30.24Q221.52-24.84 225.48-20.82Q229.44-16.80 234.84-14.64Q240.24-12.48 246.60-12.48Z M331.08 0.84L331.08 0.84Q322.92 0.84 316.68-2.22Q310.44-5.28 306.96-11.58Q303.48-17.88 303.48-27.48L303.48-27.48L303.48-64.08L318.48-64.08L318.48-29.52Q318.48-20.88 322.38-16.62Q326.28-12.36 333.48-12.36L333.48-12.36Q338.76-12.36 342.66-14.52Q346.56-16.68 348.78-21Q351-25.32 351-31.68L351-31.68L351-64.08L366-64.08L366 0L351.72 0L351.72-17.28L354.24-12Q351-5.76 344.76-2.46Q338.52 0.84 331.08 0.84Z M436.32 0L422.16 0L422.16-12.96L421.32-15.72L421.32-38.40Q421.32-45 417.36-48.66Q413.40-52.32 405.36-52.32L405.36-52.32Q399.96-52.32 394.74-50.64Q389.52-48.96 385.92-45.96L385.92-45.96L380.04-56.88Q385.20-60.84 392.34-62.82Q399.48-64.80 407.16-64.80L407.16-64.80Q421.08-64.80 428.70-58.14Q436.32-51.48 436.32-37.56L436.32-37.56L436.32 0ZM402.00 0.84L402.00 0.84Q394.80 0.84 389.40-1.62Q384.00-4.08 381.06-8.46Q378.12-12.84 378.12-18.36L378.12-18.36Q378.12-23.76 380.70-28.08Q383.28-32.40 389.16-34.92Q395.04-37.44 404.76-37.44L404.76-37.44L423.36-37.44L423.36-27.48L405.84-27.48Q398.16-27.48 395.52-25.02Q392.88-22.56 392.88-18.96L392.88-18.96Q392.88-14.88 396.12-12.48Q399.36-10.08 405.12-10.08L405.12-10.08Q410.64-10.08 415.02-12.60Q419.40-15.12 421.32-20.04L421.32-20.04L423.84-11.04Q421.68-5.40 416.10-2.28Q410.52 0.84 402.00 0.84Z M467.52 0L452.52 0L452.52-89.04L467.52-89.04L467.52 0Z M499.20 0L484.20 0L484.20-64.08L499.20-64.08L499.20 0ZM491.76-74.64L491.76-74.64Q487.56-74.64 484.86-77.28Q482.16-79.92 482.16-83.64L482.16-83.64Q482.16-87.48 484.86-90.06Q487.56-92.64 491.76-92.64L491.76-92.64Q495.96-92.64 498.66-90.18Q501.36-87.72 501.36-84L501.36-84Q501.36-80.04 498.72-77.34Q496.08-74.64 491.76-74.64Z M540.00 0.84L540.00 0.84Q529.44 0.84 523.68-4.62Q517.92-10.08 517.92-20.76L517.92-20.76L517.92-78.24L532.92-78.24L532.92-21.12Q532.92-16.56 535.26-14.04Q537.60-11.52 541.80-11.52L541.80-11.52Q546.84-11.52 550.20-14.16L550.20-14.16L554.40-3.48Q551.76-1.32 547.92-0.24Q544.08 0.84 540.00 0.84ZM550.08-52.08L507.36-52.08L507.36-64.08L550.08-64.08L550.08-52.08Z M569.04 24.12L569.04 24.12Q564.36 24.12 559.68 22.56Q555.00 21 551.88 18.24L551.88 18.24L557.88 7.20Q560.16 9.24 563.04 10.44Q565.92 11.64 568.92 11.64L568.92 11.64Q573.00 11.64 575.52 9.60Q578.04 7.56 580.20 2.76L580.20 2.76L583.92-5.64L585.12-7.44L609.36-64.08L623.76-64.08L593.76 5.16Q590.76 12.36 587.10 16.56Q583.44 20.76 578.94 22.44Q574.44 24.12 569.04 24.12ZM592.44-8.76L582.24 2.28L553.32-64.08L568.92-64.08L592.44-8.76Z" fill="#111827"/>
  </g>
</svg>