<?xml version="1.0" encoding="UTF-8" standalone="no"?>
<!-- Created with Pixodesk SVG (https://pixodesk.com) -->
<svg xmlns="http://www.w3.org/2000/svg" viewBox="-1.00001437033405 -1.0000010025053332 10.607908781604461 10.467660870862892" text-rendering="geometricPrecision" shape-rendering="geometricPrecision">
  <g id="layer1" transform="translate(-297.0681, -22.0669)">
    <path id="path79" fill="#000000" stroke-linecap="round" stroke-linejoin="round" d="M300.7617,22.0669C300.2661,22.0669,299.8643,22.3913,299.8643,22.7915C299.8644,23.1917,300.2661,23.5161,300.7617,23.5161C301.2573,23.5161,301.659,23.1917,301.659,22.7915C301.659,22.3913,301.2573,22.0669,300.7617,22.0669zM301.4573,23.6749C301.4359,23.6739,301.4142,23.6741,301.3924,23.6756L300.3719,23.7432C300.1305,23.7608,299.9472,23.9263,299.9523,24.1219L299.9493,24.1219L299.837,26.8309L298.8519,28.3316L297.2387,29.4936C297.0284,29.645,297.0099,29.9055,297.1975,30.0753C297.3851,30.245,297.7076,30.2599,297.9178,30.1083L299.5992,28.8972C299.6443,28.8647,299.6819,28.826,299.7102,28.7828L300.6743,27.3143L301.8286,28.6341L302.0478,30.1699C302.0801,30.3958,302.3332,30.5579,302.613,30.5318C302.8928,30.5057,303.0934,30.3014,303.0612,30.0755L302.8273,28.4353C302.8175,28.3666,302.7866,28.301,302.7372,28.2446L301.2469,26.5729L301.3275,24.6285L302.0112,25.5393C302.0701,25.6178,302.1627,25.6759,302.2713,25.7026L304.1942,26.175C304.438,26.235,304.6957,26.1239,304.7698,25.927C304.8439,25.7303,304.7064,25.5223,304.4628,25.4624L302.7085,25.0315L301.8247,23.8539C301.7455,23.7482,301.6074,23.682,301.4573,23.6749L301.4573,23.6749zM298.8276,23.8727C298.6395,23.8682,298.4836,23.9868,298.478,24.1387L298.3957,26.3604C298.39,26.5122,298.5368,26.6381,298.7249,26.6427L299.3255,26.6686C299.5135,26.6731,299.6694,26.5545,299.6751,26.4027L299.7574,24.1809C299.763,24.0291,299.6161,23.9032,299.4281,23.8986L298.8276,23.8727zM305.0082,24.6409C304.912,24.6467,304.8398,24.7143,304.8468,24.7919L305.3269,30.1194C305.3339,30.1971,305.4176,30.2556,305.5139,30.2499C305.6102,30.2442,305.6826,30.1766,305.6755,30.0989L305.1951,24.7714C305.1882,24.6937,305.1044,24.6352,305.0082,24.6409z"/>
  </g>
</svg>