<?xml version="1.0" encoding="UTF-8" standalone="no"?>
<!-- Created with Pixodesk SVG (https://pixodesk.com) -->
<svg xmlns="http://www.w3.org/2000/svg" viewBox="6.107484999999997 16.100414 40.70203099999998 20.716170001489765" text-rendering="geometricPrecision" shape-rendering="geometricPrecision">
  <g id="layer1" transform="translate(-89.5129, -90.6444)">
    <path id="rect2312" fill="#000000" stroke-width="0.4992" d="M98.3149,107.7448C97.3761,107.7448,96.6204,108.5005,96.6204,109.4392L96.6204,121.4008C96.6204,122.3396,97.3761,123.0958,98.3149,123.0958L99.6585,123.0958C99.7568,120.4967,101.8903,118.4392,104.4912,118.4351C107.0924,118.4389,109.2262,120.4965,109.3245,123.0958L122.3222,123.0958C122.4206,120.4965,124.5543,118.4389,127.1555,118.4351C129.7565,118.4392,131.8899,120.4967,131.9883,123.0958L133.628,123.0958C134.5668,123.0958,135.3224,122.3396,135.3224,121.4008L135.3224,109.4392C135.3224,108.5005,134.5668,107.7448,133.628,107.7448L98.3149,107.7448zM98.5164,109.9111L105.487,109.9111C105.7109,109.9111,105.8912,110.0908,105.8912,110.3146L105.8912,115.2347C105.8912,115.4586,105.7109,115.6389,105.487,115.6389L98.5164,115.6389C98.2926,115.6389,98.1123,115.4586,98.1123,115.2347L98.1123,110.3146C98.1123,110.0908,98.2926,109.9111,98.5164,109.9111zM107.7329,109.9111L114.7035,109.9111C114.9274,109.9111,115.1077,110.0908,115.1077,110.3146L115.1077,115.2347C115.1077,115.4586,114.9274,115.6389,114.7035,115.6389L107.7329,115.6389C107.5091,115.6389,107.3288,115.4586,107.3288,115.2347L107.3288,110.3146C107.3288,110.0908,107.5091,109.9111,107.7329,109.9111zM116.9494,109.9111L123.92,109.9111C124.1439,109.9111,124.3242,110.0908,124.3242,110.3146L124.3242,115.2347C124.3242,115.4586,124.1439,115.6389,123.92,115.6389L116.9494,115.6389C116.7256,115.6389,116.5453,115.4586,116.5453,115.2347L116.5453,110.3146C116.5453,110.0908,116.7256,109.9111,116.9494,109.9111zM126.1659,109.9111L133.1365,109.9111C133.3604,109.9111,133.5406,110.0908,133.5406,110.3146L133.5406,115.2347C133.5406,115.4586,133.3604,115.6389,133.1365,115.6389L126.1659,115.6389C125.9421,115.6389,125.7618,115.4586,125.7618,115.2347L125.7618,110.3146C125.7618,110.0908,125.9421,109.9111,126.1659,109.9111zM104.4912,120.097C102.7341,120.0972,101.3098,121.5216,101.3095,123.2787C101.3095,125.036,102.7339,126.4607,104.4912,126.4609C105.3352,126.461,106.1447,126.1257,106.7415,125.5289C107.3382,124.9321,107.6735,124.1227,107.6735,123.2787C107.6732,121.5214,106.2486,120.0969,104.4912,120.097zM127.1555,120.097C125.3982,120.0969,123.9735,121.5214,123.9733,123.2787C123.9732,124.1227,124.3085,124.9321,124.9053,125.5289C125.5021,126.1257,126.3115,126.461,127.1555,126.4609C127.9995,126.461,128.8089,126.1257,129.4057,125.5289C130.0025,124.9321,130.3378,124.1227,130.3377,123.2787C130.3375,121.5214,128.9128,120.0969,127.1555,120.097z"/>
  </g>
</svg>